<svg id="Layer_1" data-name="Layer 1" xmlns="http://www.w3.org/2000/svg" viewBox="0 0 35.13 20.5"><defs><style>.cls-1{fill:#ec5242;}</style></defs><title>bg-08</title><path class="cls-1" d="M20.57,29.5H3.48A.49.49,0,0,1,3,29.22a.48.48,0,0,1,.08-.51L20.21,9.16a.47.47,0,0,1,.67,0,.47.47,0,0,1,.05.67L4.53,28.55h16a.48.48,0,0,1,0,.95Z" transform="translate(-3 -9)"/><path class="cls-1" d="M37.66,29.5H20.57a.48.48,0,1,1,0-.95h16L20.21,9.79a.47.47,0,0,1,0-.67.48.48,0,0,1,.68,0L38,28.71a.47.47,0,0,1,.07.51A.48.48,0,0,1,37.66,29.5Z" transform="translate(-3 -9)"/><path class="cls-1" d="M9.49,29.5a.56.56,0,0,1-.32-.11.49.49,0,0,1,0-.68l14-16.2a.48.48,0,1,1,.72.62l-14,16.21A.48.48,0,0,1,9.49,29.5Z" transform="translate(-3 -9)"/><path class="cls-1" d="M15.91,29.5a.56.56,0,0,1-.32-.11.49.49,0,0,1,0-.68L26.36,16.2a.47.47,0,0,1,.67-.05.49.49,0,0,1,0,.68L16.27,29.34A.48.48,0,0,1,15.91,29.5Z" transform="translate(-3 -9)"/><path class="cls-1" d="M22.33,29.5a.54.54,0,0,1-.32-.11.48.48,0,0,1,0-.68l7.62-8.82a.47.47,0,0,1,.67,0,.47.47,0,0,1,0,.67l-7.62,8.82A.48.48,0,0,1,22.33,29.5Z" transform="translate(-3 -9)"/><path class="cls-1" d="M28.75,29.5a.54.54,0,0,1-.32-.11.48.48,0,0,1,0-.68l4.42-5.12a.49.49,0,0,1,.68-.05.47.47,0,0,1,0,.67l-4.43,5.13A.48.48,0,0,1,28.75,29.5Z" transform="translate(-3 -9)"/></svg>