<svg id="Object" xmlns="http://www.w3.org/2000/svg" viewBox="0 0 66.56 62.54"><defs><style>.cls-1{fill:#ec5242;}.cls-2{fill:#d3d3d3;}</style></defs><title>strips-02</title><path class="cls-1" d="M452.84,423c-18.35,0-33.28-14-33.28-31.27s14.93-31.27,33.28-31.27,33.28,14,33.28,31.27S471.19,423,452.84,423Zm0-61.84c-17.94,0-32.53,13.72-32.53,30.57s14.59,30.57,32.53,30.57,32.53-13.72,32.53-30.57S470.78,361.16,452.84,361.16Z" transform="translate(-419.56 -360.46)"/><path class="cls-2" d="M452.84,418c-15.4,0-27.93-11.77-27.93-26.24s12.53-26.24,27.93-26.24,27.93,11.77,27.93,26.24S468.24,418,452.84,418Zm0-51.78c-15,0-27.18,11.46-27.18,25.54s12.19,25.54,27.18,25.54S480,405.81,480,391.73,467.82,366.19,452.84,366.19Z" transform="translate(-419.56 -360.46)"/><path class="cls-1" d="M452.84,412.94c-12.45,0-22.58-9.51-22.58-21.21s10.13-21.21,22.58-21.21,22.58,9.51,22.58,21.21S465.29,412.94,452.84,412.94Zm0-41.72c-12,0-21.83,9.2-21.83,20.51s9.79,20.51,21.83,20.51,21.83-9.2,21.83-20.51S464.87,371.22,452.84,371.22Z" transform="translate(-419.56 -360.46)"/><path class="cls-2" d="M452.84,407.92c-9.5,0-17.23-7.27-17.23-16.19s7.73-16.19,17.23-16.19,17.22,7.26,17.22,16.19S462.34,407.92,452.84,407.92Zm0-31.67c-9.09,0-16.48,6.94-16.48,15.48s7.39,15.48,16.48,15.48,16.47-6.94,16.47-15.48S461.92,376.25,452.84,376.25Z" transform="translate(-419.56 -360.46)"/><path class="cls-1" d="M452.84,402.89c-6.55,0-11.88-5-11.88-11.16s5.33-11.16,11.88-11.16,11.87,5,11.87,11.16S459.39,402.89,452.84,402.89Zm0-21.61c-6.14,0-11.13,4.69-11.13,10.45s5,10.45,11.13,10.45S464,397.49,464,391.73,459,381.28,452.84,381.28Z" transform="translate(-419.56 -360.46)"/></svg>