<svg id="Layer_1" data-name="Layer 1" xmlns="http://www.w3.org/2000/svg" viewBox="0 0 36.23 9.39"><defs><style>.cls-1{fill:#ec5242;}</style></defs><title>bg-09</title><path class="cls-1" d="M38.23,23.91a2.85,2.85,0,0,1-2.17-1.08,2.27,2.27,0,0,0-3.71,0,2.71,2.71,0,0,1-4.34,0,2.27,2.27,0,0,0-3.7,0,2.71,2.71,0,0,1-4.34,0,2.28,2.28,0,0,0-3.71,0A2.8,2.8,0,0,1,14.1,24a2.86,2.86,0,0,1-2.18-1.08,2.39,2.39,0,0,0-1.85-.95,2.41,2.41,0,0,0-1.86,1A2.83,2.83,0,0,1,6.05,24,2.89,2.89,0,0,1,3.87,22.9,2.36,2.36,0,0,0,2,22v-.41a2.82,2.82,0,0,1,2.17,1.08,2.37,2.37,0,0,0,1.86.95,2.37,2.37,0,0,0,1.85-1,2.86,2.86,0,0,1,2.17-1.09,2.85,2.85,0,0,1,2.17,1.08,2.4,2.4,0,0,0,1.85,1,2.45,2.45,0,0,0,1.86-1,2.71,2.71,0,0,1,4.34,0,2.27,2.27,0,0,0,3.7,0,2.71,2.71,0,0,1,4.34,0,2.39,2.39,0,0,0,1.85.95,2.42,2.42,0,0,0,1.86-1,2.7,2.7,0,0,1,4.33,0,2.43,2.43,0,0,0,1.86.95Z" transform="translate(-2 -14.59)"/><path class="cls-1" d="M38.22,20.47a2.85,2.85,0,0,1-2.17-1.08,2.42,2.42,0,0,0-1.86-1,2.45,2.45,0,0,0-1.85,1,2.7,2.7,0,0,1-4.33,0,2.43,2.43,0,0,0-1.86-.95,2.4,2.4,0,0,0-1.85,1,2.71,2.71,0,0,1-4.34,0,2.27,2.27,0,0,0-3.7,0,2.71,2.71,0,0,1-4.34,0,2.43,2.43,0,0,0-1.86-1,2.37,2.37,0,0,0-1.85,1A2.86,2.86,0,0,1,6,20.54a2.85,2.85,0,0,1-2.17-1.08A2.4,2.4,0,0,0,2,18.51V18.1a2.82,2.82,0,0,1,2.17,1.08A2.4,2.4,0,0,0,6,20.13a2.37,2.37,0,0,0,1.85-1,2.86,2.86,0,0,1,2.17-1.09,2.85,2.85,0,0,1,2.17,1.08,2.42,2.42,0,0,0,1.86,1,2.43,2.43,0,0,0,1.85-1,2.71,2.71,0,0,1,4.34,0,2.27,2.27,0,0,0,3.7,0,2.71,2.71,0,0,1,4.34,0,2.28,2.28,0,0,0,3.71,0A2.8,2.8,0,0,1,34.19,18a2.86,2.86,0,0,1,2.18,1.08,2.39,2.39,0,0,0,1.85.95Z" transform="translate(-2 -14.59)"/><path class="cls-1" d="M38.21,17A2.85,2.85,0,0,1,36,16a2.4,2.4,0,0,0-1.85-1,2.43,2.43,0,0,0-1.85,1A2.82,2.82,0,0,1,30.17,17,2.79,2.79,0,0,1,28,16a2.28,2.28,0,0,0-3.71,0,2.8,2.8,0,0,1-2.16,1.09A2.86,2.86,0,0,1,20,16a2.27,2.27,0,0,0-3.7,0,2.71,2.71,0,0,1-4.34,0,2.43,2.43,0,0,0-1.86-.95A2.37,2.37,0,0,0,8.2,16,2.82,2.82,0,0,1,6,17.1,2.85,2.85,0,0,1,3.86,16,2.4,2.4,0,0,0,2,15.07v-.41a2.82,2.82,0,0,1,2.17,1.08,2.4,2.4,0,0,0,1.86,1,2.37,2.37,0,0,0,1.85-1,2.86,2.86,0,0,1,2.17-1.09,2.85,2.85,0,0,1,2.17,1.08,2.44,2.44,0,0,0,1.86,1,2.43,2.43,0,0,0,1.85-1,2.82,2.82,0,0,1,2.17-1.09,2.79,2.79,0,0,1,2.17,1.08,2.28,2.28,0,0,0,3.71,0,2.7,2.7,0,0,1,4.33,0,2.43,2.43,0,0,0,1.86,1,2.4,2.4,0,0,0,1.85-1,2.71,2.71,0,0,1,4.34,0,2.39,2.39,0,0,0,1.85,1Z" transform="translate(-2 -14.59)"/></svg>