<svg id="Layer_1" data-name="Layer 1" xmlns="http://www.w3.org/2000/svg" viewBox="0 0 16 29.98"><defs><style>.cls-1{fill:#ec5242;}.cls-2{fill:#272a31;}</style></defs><title>bg-04</title><polygon class="cls-1" points="15.82 12.72 8.02 12.72 11.89 0.17 0.17 17.26 7.99 17.26 4.11 29.8 15.82 12.72"/><path class="cls-2" d="M16.11,34,16,34a.17.17,0,0,1-.09-.21l3.81-12.31H12.17a.18.18,0,0,1-.15-.1.17.17,0,0,1,0-.18L23.75,4.1A.17.17,0,0,1,24,4a.17.17,0,0,1,.09.21L20.25,16.57h7.58a.16.16,0,0,1,.15.09.17.17,0,0,1,0,.18L16.25,33.92A.17.17,0,0,1,16.11,34Zm-3.6-12.89H20a.18.18,0,0,1,.15.07.16.16,0,0,1,0,.15L16.61,32.78,27.49,16.92H20a.21.21,0,0,1-.15-.07.18.18,0,0,1,0-.16L23.39,5.25Z" transform="translate(-12 -4.02)"/></svg>