<svg id="Layer_1" data-name="Layer 1" xmlns="http://www.w3.org/2000/svg" viewBox="0 0 16.23 17.48"><defs><style>.cls-1{fill:#d3d3d3;}.cls-2{fill:#3e4e66;}.cls-3{fill:#ec5242;}.cls-4{fill:#272a31;}</style></defs><title>bg-03</title><path class="cls-1" d="M24,10.71v9.37a5,5,0,0,1-.91,3.32,3.67,3.67,0,0,1-2.93,1.05,3.75,3.75,0,0,1-3-1.05,5,5,0,0,1-.91-3.3V10.71h-4.1v10A6.83,6.83,0,0,0,14.21,26,8.24,8.24,0,0,0,20,27.91a10,10,0,0,0,4.31-.86,6.28,6.28,0,0,0,2.79-2.49,7.28,7.28,0,0,0,1-3.78V10.71Z" transform="translate(-12 -10.57)"/><path class="cls-2" d="M20,28.05a8.4,8.4,0,0,1-5.91-2A7,7,0,0,1,12,20.73v-10a.14.14,0,0,1,.14-.14h4.1a.14.14,0,0,1,.14.14V20.1a4.87,4.87,0,0,0,.87,3.21,3.66,3.66,0,0,0,2.89,1,3.57,3.57,0,0,0,2.83-1,5,5,0,0,0,.88-3.23V10.71a.13.13,0,0,1,.13-.14h4.11a.14.14,0,0,1,.14.14V20.78a7.45,7.45,0,0,1-1,3.85,6.53,6.53,0,0,1-2.85,2.54A10.17,10.17,0,0,1,20,28.05ZM12.27,10.84v9.89a6.75,6.75,0,0,0,2,5.16A8.16,8.16,0,0,0,20,27.77a9.8,9.8,0,0,0,4.25-.85A6.17,6.17,0,0,0,27,24.49,7.13,7.13,0,0,0,28,20.78V10.84H24.12v9.24a5.17,5.17,0,0,1-.94,3.4,3.82,3.82,0,0,1-3,1.11,3.87,3.87,0,0,1-3.09-1.1,5.08,5.08,0,0,1-.94-3.39V10.84Z" transform="translate(-12 -10.57)"/><path class="cls-3" d="M28.09,14.49v6.29a7.28,7.28,0,0,1-1,3.78,6.28,6.28,0,0,1-2.79,2.49,10,10,0,0,1-4.31.86A8.24,8.24,0,0,1,14.21,26a6.83,6.83,0,0,1-2.07-5.26V14.49h4.1V20.1a5,5,0,0,0,.91,3.3,3.75,3.75,0,0,0,3,1.05,3.67,3.67,0,0,0,2.93-1.05A5,5,0,0,0,24,20.08V14.49Z" transform="translate(-12 -10.57)"/><path class="cls-4" d="M20,28.05a8.4,8.4,0,0,1-5.91-2A7,7,0,0,1,12,20.73V14.49a.14.14,0,0,1,.14-.14h4.1a.14.14,0,0,1,.14.14V20.1a4.87,4.87,0,0,0,.87,3.21,3.66,3.66,0,0,0,2.89,1,3.57,3.57,0,0,0,2.83-1,5,5,0,0,0,.88-3.23V14.49a.13.13,0,0,1,.13-.14h4.11a.14.14,0,0,1,.14.14v6.29a7.45,7.45,0,0,1-1,3.85,6.53,6.53,0,0,1-2.85,2.54A10.17,10.17,0,0,1,20,28.05ZM12.27,14.62v6.11a6.75,6.75,0,0,0,2,5.16A8.16,8.16,0,0,0,20,27.77a9.8,9.8,0,0,0,4.25-.85A6.17,6.17,0,0,0,27,24.49,7.13,7.13,0,0,0,28,20.78V14.62H24.12v5.46a5.17,5.17,0,0,1-.94,3.4,3.82,3.82,0,0,1-3,1.11,3.87,3.87,0,0,1-3.09-1.1,5.08,5.08,0,0,1-.94-3.39V14.62Z" transform="translate(-12 -10.57)"/><path class="cls-4" d="M13.32,12.51h0Z" transform="translate(-12 -10.57)"/><path class="cls-4" d="M15.09,12.64H13.32a.13.13,0,0,1-.14-.13.14.14,0,0,1,.14-.14h1.77a.14.14,0,0,1,.14.14A.13.13,0,0,1,15.09,12.64Z" transform="translate(-12 -10.57)"/><path class="cls-4" d="M25.22,12.51h0Z" transform="translate(-12 -10.57)"/><path class="cls-4" d="M27,12.64H25.22a.13.13,0,0,1-.14-.13.14.14,0,0,1,.14-.14H27a.14.14,0,0,1,.14.14A.13.13,0,0,1,27,12.64Z" transform="translate(-12 -10.57)"/><path class="cls-4" d="M26.11,13.39v0Z" transform="translate(-12 -10.57)"/><path class="cls-4" d="M26.11,13.53a.14.14,0,0,1-.14-.14V11.62a.14.14,0,0,1,.14-.14.13.13,0,0,1,.13.14v1.77A.13.13,0,0,1,26.11,13.53Z" transform="translate(-12 -10.57)"/></svg>