<svg id="Layer_1" data-name="Layer 1" xmlns="http://www.w3.org/2000/svg" viewBox="0 0 27.45 31.34"><defs><style>.cls-1{fill:#272a31;}.cls-2{fill:#ec5242;}</style></defs><title>bg-03</title><path class="cls-1" d="M20.71,36.34c-1.32,0-2.55-1.66-3.45-4.67a39.64,39.64,0,0,1-1.37-11,39.72,39.72,0,0,1,1.37-11c.9-3,2.13-4.66,3.45-4.66s2.56,1.66,3.46,4.66a39.72,39.72,0,0,1,1.37,11,39.64,39.64,0,0,1-1.37,11C23.27,34.68,22,36.34,20.71,36.34Zm0-31c-1.14,0-2.27,1.61-3.12,4.41a39.78,39.78,0,0,0-1.35,10.91,39.7,39.7,0,0,0,1.35,10.9c.85,2.81,2,4.42,3.12,4.42s2.28-1.61,3.13-4.42a39.7,39.7,0,0,0,1.35-10.9A39.78,39.78,0,0,0,23.84,9.76C23,7,21.86,5.35,20.71,5.35Z" transform="translate(-7 -5)"/><path class="cls-1" d="M31.54,29.87a12.55,12.55,0,0,1-3.22-.5,39.82,39.82,0,0,1-10.1-4.59,40.3,40.3,0,0,1-8.66-6.93C7.47,15.5,6.71,13.59,7.4,12.46s2.75-1.31,5.79-.5a39.93,39.93,0,0,1,10.09,4.59,40.3,40.3,0,0,1,8.66,6.93c2.09,2.35,2.85,4.26,2.16,5.39A2.83,2.83,0,0,1,31.54,29.87ZM10,11.81a2.52,2.52,0,0,0-2.26.83c-.6,1,.18,2.79,2.13,5a39.32,39.32,0,0,0,8.58,6.87,39.42,39.42,0,0,0,10,4.55c2.83.76,4.79.63,5.39-.34s-.18-2.79-2.13-5a39.32,39.32,0,0,0-8.58-6.87,39.59,39.59,0,0,0-10-4.56A12.84,12.84,0,0,0,10,11.81Z" transform="translate(-7 -5)"/><path class="cls-1" d="M9.91,29.68c-1.35,0-2.27-.35-2.68-1-.67-1.15.13-3.05,2.26-5.35a39.89,39.89,0,0,1,8.78-6.78A39.84,39.84,0,0,1,28.44,12.1c3-.76,5.1-.54,5.78.6s-.13,3-2.26,5.35a39.89,39.89,0,0,1-8.78,6.78A39.84,39.84,0,0,1,13,29.24,13.05,13.05,0,0,1,9.91,29.68ZM31.55,12a12.76,12.76,0,0,0-3,.43,39.2,39.2,0,0,0-10.08,4.38,39.09,39.09,0,0,0-8.7,6.71c-2,2.15-2.8,3.95-2.21,4.93s2.54,1.14,5.38.44A39.2,39.2,0,0,0,23,24.52l.09.16L23,24.52a39.09,39.09,0,0,0,8.7-6.71c2-2.15,2.8-3.95,2.21-4.93C33.57,12.3,32.75,12,31.55,12Z" transform="translate(-7 -5)"/><circle class="cls-2" cx="13.71" cy="15.66" r="1.32"/><path class="cls-2" d="M20.71,22.16a1.5,1.5,0,1,1,1.5-1.5A1.5,1.5,0,0,1,20.71,22.16Zm0-2.64a1.15,1.15,0,1,0,1.15,1.14A1.15,1.15,0,0,0,20.71,19.52Z" transform="translate(-7 -5)"/><circle class="cls-2" cx="5.16" cy="7" r="1.32"/><path class="cls-2" d="M12.16,13.5a1.51,1.51,0,0,1-1.45-1.16,1.46,1.46,0,0,1,.18-1.13,1.48,1.48,0,0,1,.93-.67,1.5,1.5,0,0,1,1.13.18,1.5,1.5,0,0,1-.44,2.73A1.41,1.41,0,0,1,12.16,13.5Zm0-2.65a1.24,1.24,0,0,0-.27,0,1.16,1.16,0,0,0-.85,1.38,1.12,1.12,0,0,0,.51.71,1.15,1.15,0,0,0,.87.14,1.12,1.12,0,0,0,.71-.51,1.15,1.15,0,0,0,.14-.87,1.14,1.14,0,0,0-.52-.71A1.15,1.15,0,0,0,12.17,10.85Z" transform="translate(-7 -5)"/><circle class="cls-2" cx="5.66" cy="24.13" r="1.32"/><path class="cls-2" d="M12.66,30.62a1.55,1.55,0,0,1-.37,0,1.51,1.51,0,0,1-1.08-1.83,1.47,1.47,0,0,1,.69-.91A1.44,1.44,0,0,1,13,27.68a1.49,1.49,0,0,1-.37,2.94Zm0-2.64a1.06,1.06,0,0,0-.58.16,1.11,1.11,0,0,0-.53.7,1.15,1.15,0,0,0,.12.87,1.2,1.2,0,0,0,.7.53,1.16,1.16,0,0,0,1.4-.83,1.21,1.21,0,0,0-.12-.87,1.14,1.14,0,0,0-.71-.52A.9.9,0,0,0,12.66,28Z" transform="translate(-7 -5)"/><circle class="cls-2" cx="24.01" cy="17.72" r="1.32"/><path class="cls-2" d="M31,24.21a1.5,1.5,0,1,1,1.5-1.49A1.49,1.49,0,0,1,31,24.21Zm0-2.64a1.15,1.15,0,1,0,1.15,1.15A1.14,1.14,0,0,0,31,21.57Z" transform="translate(-7 -5)"/></svg>