<svg id="Layer_1" data-name="Layer 1" xmlns="http://www.w3.org/2000/svg" viewBox="0 0 36.73 9.78"><defs><style>.cls-1{fill:#fff;}</style></defs><title>logo-00</title><path class="cls-1" d="M6.89,20.78A4.75,4.75,0,0,1,5,20.39a4.72,4.72,0,0,1-1.56-1.05,4.83,4.83,0,0,1-1.05-1.55,4.9,4.9,0,0,1,6.41-6.41,4.83,4.83,0,0,1,1.55,1,4.86,4.86,0,0,1,1.05,5.36,4.68,4.68,0,0,1-1.05,1.55,4.68,4.68,0,0,1-1.55,1.05A4.75,4.75,0,0,1,6.89,20.78Zm0-9.65a4.76,4.76,0,1,0,4.76,4.76A4.76,4.76,0,0,0,6.89,11.13Z" transform="translate(-2 -11)"/><path class="cls-1" d="M4.2,14.08v3.48H3.59V14.08Z" transform="translate(-2 -11)"/><path class="cls-1" d="M7.67,16.49a1.26,1.26,0,0,1-1.35,1.12c-1.07,0-1.46-.79-1.46-1.8S5.34,14,6.34,14a1.19,1.19,0,0,1,1.31,1.12H7a.66.66,0,0,0-.72-.62c-.61,0-.83.62-.83,1.28s.19,1.31.84,1.31a.72.72,0,0,0,.73-.63Z" transform="translate(-2 -11)"/><path class="cls-1" d="M8.21,14.08H9.45c.66,0,1.2.34,1.2,1s-.52,1.07-1.25,1.07H8.83v1.4H8.21Zm.62,1.59h.53c.4,0,.66-.14.66-.56s-.26-.54-.64-.54H8.83Z" transform="translate(-2 -11)"/><path class="cls-1" d="M13.94,12.58v3.24h-.58V12.58Z" transform="translate(-2 -11)"/><path class="cls-1" d="M14.56,14.15c0-.5,0-.65,0-.76h.55s0,.23,0,.34a.71.71,0,0,1,.69-.38c.49,0,.77.3.77.89v1.58H16V14.34c0-.3-.09-.53-.41-.53s-.49.22-.49.68v1.33h-.56Z" transform="translate(-2 -11)"/><path class="cls-1" d="M16.91,13.39h.36v-.67h.55v.67h.46v.44h-.46v1.34c0,.18.05.26.25.26l.16,0v.4a1.26,1.26,0,0,1-.37,0c-.43,0-.59-.17-.59-.61V13.83h-.36Z" transform="translate(-2 -11)"/><path class="cls-1" d="M19.05,14.73c0,.36.15.7.53.7A.45.45,0,0,0,20,15.1h.55a1,1,0,0,1-1,.77c-.77,0-1.07-.55-1.07-1.26a1.12,1.12,0,0,1,1.1-1.26c.79,0,1,.58,1,1.19v.19Zm1-.37c0-.33-.14-.59-.5-.59s-.5.34-.52.59Z" transform="translate(-2 -11)"/><path class="cls-1" d="M21.1,14.22c0-.4,0-.68,0-.83h.55c0,.11,0,.27,0,.45a.79.79,0,0,1,.75-.49v.57c-.51,0-.74.22-.74.77v1.13H21.1Z" transform="translate(-2 -11)"/><path class="cls-1" d="M22.77,14.15c0-.5,0-.65,0-.76h.54a2.82,2.82,0,0,1,0,.34.74.74,0,0,1,.69-.38c.49,0,.77.3.77.89v1.58h-.56V14.34c0-.3-.08-.53-.4-.53s-.49.22-.49.68v1.33h-.56Z" transform="translate(-2 -11)"/><path class="cls-1" d="M27.24,15.23a5.68,5.68,0,0,0,0,.59h-.49a1.39,1.39,0,0,1,0-.32.7.7,0,0,1-.7.37.71.71,0,0,1-.8-.74c0-.42.28-.79,1.13-.79h.32v-.2c0-.21-.06-.39-.39-.39s-.4.15-.42.36h-.55c0-.39.27-.76,1-.76.55,0,.93.2.93.78Zm-.53-.53h-.33c-.49,0-.58.2-.58.39a.34.34,0,0,0,.38.35c.41,0,.53-.28.53-.68Z" transform="translate(-2 -11)"/><path class="cls-1" d="M27.54,13.39h.36v-.67h.55v.67h.46v.44h-.46v1.34c0,.18.05.26.25.26l.16,0v.4a1.26,1.26,0,0,1-.37,0c-.43,0-.59-.17-.59-.61V13.83h-.36Z" transform="translate(-2 -11)"/><path class="cls-1" d="M29.3,12.38h.55V13H29.3Zm0,1h.55v2.43H29.3Z" transform="translate(-2 -11)"/><path class="cls-1" d="M32.59,14.57c0,.71-.33,1.3-1.14,1.3s-1.11-.62-1.11-1.28a1.13,1.13,0,0,1,1.14-1.24A1.09,1.09,0,0,1,32.59,14.57Zm-1.69,0c0,.54.2.86.57.86s.55-.32.55-.85-.18-.79-.56-.79S30.9,14.1,30.9,14.57Z" transform="translate(-2 -11)"/><path class="cls-1" d="M33.07,14.15c0-.5,0-.65,0-.76h.55a2.82,2.82,0,0,1,0,.34.72.72,0,0,1,.69-.38c.49,0,.77.3.77.89v1.58h-.56V14.34c0-.3-.09-.53-.41-.53s-.49.22-.49.68v1.33h-.56Z" transform="translate(-2 -11)"/><path class="cls-1" d="M37.54,15.23a5.68,5.68,0,0,0,0,.59h-.49a2.31,2.31,0,0,1,0-.32.69.69,0,0,1-.7.37.72.72,0,0,1-.8-.74c0-.42.28-.79,1.14-.79H37v-.2c0-.21-.06-.39-.39-.39a.36.36,0,0,0-.42.36h-.54c0-.39.26-.76,1-.76.55,0,.93.2.93.78ZM37,14.7h-.33c-.48,0-.57.2-.57.39a.34.34,0,0,0,.37.35c.42,0,.53-.28.53-.68Z" transform="translate(-2 -11)"/><path class="cls-1" d="M38.17,15.82V12.38h.56v3.44Z" transform="translate(-2 -11)"/><path class="cls-1" d="M14,17.9a.47.47,0,0,1-.47.46c-.33,0-.48-.25-.48-.67s.18-.68.5-.68a.45.45,0,0,1,.45.47h-.26c0-.12-.06-.24-.2-.24s-.24.18-.24.44.09.45.24.45.18-.1.21-.23Z" transform="translate(-2 -11)"/><path class="cls-1" d="M15.19,17.67c0,.37-.15.69-.52.69s-.5-.33-.5-.69.16-.66.52-.66S15.19,17.31,15.19,17.67Zm-.76,0c0,.28.09.45.25.45s.25-.17.25-.45-.08-.42-.25-.42S14.43,17.41,14.43,17.67Z" transform="translate(-2 -11)"/><path class="cls-1" d="M15.4,17.44V17h.24a1,1,0,0,1,0,.18A.34.34,0,0,1,16,17c.23,0,.35.16.35.48v.85h-.25v-.8c0-.16,0-.28-.18-.28s-.23.12-.23.36v.72H15.4Z" transform="translate(-2 -11)"/><path class="cls-1" d="M16.62,18.34V17.27h-.15V17h.15V16.9c0-.25.09-.42.33-.42h.11v.24H17c-.08,0-.11.06-.11.17V17h.19v.24h-.19v1.07Z" transform="translate(-2 -11)"/><path class="cls-1" d="M17.39,17.75c0,.19.07.37.24.37a.21.21,0,0,0,.21-.17h.25a.47.47,0,0,1-.47.41c-.35,0-.48-.3-.48-.67s.13-.68.49-.68.47.31.47.64v.1Zm.47-.2c0-.17-.07-.31-.23-.31s-.23.18-.23.31Z" transform="translate(-2 -11)"/><path class="cls-1" d="M18.32,17.48c0-.22,0-.36,0-.45h.25v.24A.37.37,0,0,1,18.9,17v.31c-.23,0-.33.12-.33.41v.61h-.25Z" transform="translate(-2 -11)"/><path class="cls-1" d="M19.26,17.75c0,.19.06.37.24.37a.22.22,0,0,0,.21-.17H20a.46.46,0,0,1-.46.41c-.35,0-.49-.3-.49-.67s.14-.68.5-.68.47.31.47.64a.38.38,0,0,1,0,.1Zm.46-.2c0-.17-.06-.31-.22-.31s-.23.18-.24.31Z" transform="translate(-2 -11)"/><path class="cls-1" d="M20.18,17.44V17h.24a1,1,0,0,1,0,.18.34.34,0,0,1,.31-.2c.22,0,.35.16.35.48v.85h-.25v-.8c0-.16,0-.28-.19-.28s-.22.12-.22.36v.72h-.25Z" transform="translate(-2 -11)"/><path class="cls-1" d="M22.26,17.9a.47.47,0,0,1-.47.46c-.33,0-.48-.25-.48-.67s.18-.68.5-.68a.45.45,0,0,1,.45.47H22c0-.12-.07-.24-.21-.24s-.24.18-.24.44.09.45.24.45S22,18,22,17.9Z" transform="translate(-2 -11)"/><path class="cls-1" d="M22.66,17.75c0,.19.06.37.24.37a.22.22,0,0,0,.21-.17h.24a.47.47,0,0,1-.46.41c-.35,0-.49-.3-.49-.67s.14-.68.5-.68.47.31.47.64a.38.38,0,0,1,0,.1Zm.46-.2c0-.17-.06-.31-.22-.31s-.23.18-.24.31Z" transform="translate(-2 -11)"/><path class="cls-1" d="M25.05,17.67c0,.37-.15.69-.52.69S24,18,24,17.67s.16-.66.52-.66S25.05,17.31,25.05,17.67Zm-.76,0c0,.28.09.45.25.45s.25-.17.25-.45-.08-.42-.25-.42S24.29,17.41,24.29,17.67Z" transform="translate(-2 -11)"/><path class="cls-1" d="M25.26,17.44V17h.24a1,1,0,0,1,0,.18.34.34,0,0,1,.31-.2c.23,0,.35.16.35.48v.85h-.25v-.8c0-.16,0-.28-.18-.28s-.23.12-.23.36v.72h-.25Z" transform="translate(-2 -11)"/><path class="cls-1" d="M27.22,18.21v.63H27V17h.24a1.09,1.09,0,0,1,0,.19.32.32,0,0,1,.32-.21c.24,0,.42.21.42.66s-.2.69-.46.69A.28.28,0,0,1,27.22,18.21Zm.48-.54c0-.29-.1-.41-.24-.41s-.25.13-.25.43.05.42.24.42S27.7,18,27.7,17.67Z" transform="translate(-2 -11)"/><path class="cls-1" d="M28.42,16.49v.71a.34.34,0,0,1,.32-.19c.18,0,.34.12.34.47v.86h-.25v-.81c0-.16,0-.27-.19-.27s-.22.12-.22.35v.73h-.25V16.49Z" transform="translate(-2 -11)"/><path class="cls-1" d="M29.48,17c.15.58.23.89.25,1h0c0-.15.13-.59.24-1h.25l-.38,1.36c-.11.41-.23.47-.42.47h-.1v-.24h.1c.1,0,.15-.08.18-.22L29.21,17Z" transform="translate(-2 -11)"/><path class="cls-1" d="M30.54,17.94a.2.2,0,0,0,.21.2c.12,0,.17-.06.17-.16s-.06-.14-.23-.19-.36-.22-.36-.4a.36.36,0,0,1,.4-.38.39.39,0,0,1,.42.39H30.9a.17.17,0,0,0-.18-.17.13.13,0,0,0-.14.14c0,.07,0,.11.21.16s.38.22.38.43a.39.39,0,0,1-.43.4.41.41,0,0,1-.44-.42Z" transform="translate(-2 -11)"/><path class="cls-1" d="M31.38,16.49h.25v.31h-.25Zm0,.54h.25v1.31h-.25Z" transform="translate(-2 -11)"/><path class="cls-1" d="M32.8,17.9a.47.47,0,0,1-.47.46c-.33,0-.48-.25-.48-.67s.18-.68.5-.68a.45.45,0,0,1,.45.47h-.26c0-.12-.06-.24-.2-.24s-.24.18-.24.44.09.45.24.45.18-.1.21-.23Z" transform="translate(-2 -11)"/><path class="cls-1" d="M33.16,17.94a.2.2,0,0,0,.21.2c.12,0,.17-.06.17-.16s-.06-.14-.23-.19-.36-.22-.36-.4a.36.36,0,0,1,.4-.38.39.39,0,0,1,.42.39h-.25a.17.17,0,0,0-.18-.17.13.13,0,0,0-.14.14c0,.07,0,.11.21.16s.38.22.38.43a.39.39,0,0,1-.43.4.41.41,0,0,1-.44-.42Z" transform="translate(-2 -11)"/></svg>