<svg id="Layer_1" data-name="Layer 1" xmlns="http://www.w3.org/2000/svg" viewBox="0 0 27.02 27.02"><defs><style>.cls-1{fill:#fff;}</style></defs><title>logo-03</title><path class="cls-1" d="M20.49,31.78a13.3,13.3,0,0,1-5.26-1.07A13.46,13.46,0,0,1,8,23.52,13.58,13.58,0,0,1,8,13,13.51,13.51,0,1,1,25.75,30.71,13.37,13.37,0,0,1,20.49,31.78Zm0-26.68A13.17,13.17,0,1,0,33.65,18.26,13.18,13.18,0,0,0,20.49,5.1Z" transform="translate(-6.98 -4.75)"/><path class="cls-1" d="M13.06,13.26v9.63H11.37V13.26Z" transform="translate(-6.98 -4.75)"/><path class="cls-1" d="M22.64,19.94A3.49,3.49,0,0,1,18.91,23c-3,0-4-2.19-4-5s1.34-4.92,4.12-4.92a3.27,3.27,0,0,1,3.6,3.09H20.92a1.86,1.86,0,0,0-2-1.71c-1.7,0-2.31,1.7-2.31,3.53s.54,3.61,2.33,3.61a2,2,0,0,0,2-1.71Z" transform="translate(-6.98 -4.75)"/><path class="cls-1" d="M24.15,13.26h3.43c1.81,0,3.3.93,3.3,2.81s-1.42,3-3.46,3H25.85v3.86h-1.7Zm1.7,4.41h1.47c1.12,0,1.83-.4,1.83-1.57s-.73-1.47-1.78-1.47H25.85Z" transform="translate(-6.98 -4.75)"/></svg>