<svg id="Layer_1" data-name="Layer 1" xmlns="http://www.w3.org/2000/svg" viewBox="0 0 32.74 10"><defs><style>.cls-1{fill:#ec5242;}</style></defs><title>logo-01</title><path class="cls-1" d="M9.54,15.7a.19.19,0,0,1-.19-.19A1.5,1.5,0,0,1,10.86,14a.21.21,0,0,1,.19.19A1.5,1.5,0,0,1,9.54,15.7Zm.21-.4a1.12,1.12,0,0,0,.9-.9,1.12,1.12,0,0,0-.9.9Z" transform="translate(-6.01 -14)"/><path class="cls-1" d="M13.23,17.25a2.49,2.49,0,0,0-3.16-1.32.89.89,0,0,1-.68,0A2.49,2.49,0,0,0,7.44,16a2.53,2.53,0,0,0-1.3,1.46A2.48,2.48,0,0,0,6.3,19.4l1,1.87h0a1.4,1.4,0,0,0,.85.71,1.43,1.43,0,0,0,1.09-.12,1,1,0,0,1,1,0,1.45,1.45,0,0,0,1.1.11,1.4,1.4,0,0,0,.85-.7l1-1.87h0a2.46,2.46,0,0,0,.07-2.15Zm-.41,2-1,1.87a1,1,0,0,1-.62.51,1.06,1.06,0,0,1-.8-.08,1.41,1.41,0,0,0-1.38,0,1.09,1.09,0,0,1-.81.08,1,1,0,0,1-.62-.51l-1-1.87a2.15,2.15,0,0,1-.13-1.65,2.1,2.1,0,0,1,1.1-1.24,2.17,2.17,0,0,1,1.66-.06,1.27,1.27,0,0,0,.94,0A2.11,2.11,0,0,1,13,17.58a2.11,2.11,0,0,1-.14,1.65Z" transform="translate(-6.01 -14)"/><path class="cls-1" d="M10.16,23.11l-.24.25v-.87a.2.2,0,0,0-.19-.19.19.19,0,0,0-.19.19v.87l-.25-.25h0a.19.19,0,0,0-.26,0,.2.2,0,0,0,0,.27l.56.56a.2.2,0,0,0,.14.06.16.16,0,0,0,.13-.06l.57-.56a.19.19,0,0,0,0-.27.19.19,0,0,0-.26,0Z" transform="translate(-6.01 -14)"/><path class="cls-1" d="M12.05,23.11l-.25.25v-.87a.19.19,0,1,0-.37,0v.87l-.25-.25h0a.19.19,0,0,0-.26,0,.19.19,0,0,0,0,.27l.57.56a.18.18,0,0,0,.13.06.2.2,0,0,0,.14-.06l.56-.56a.19.19,0,0,0,0-.27.19.19,0,0,0-.26,0Z" transform="translate(-6.01 -14)"/><path class="cls-1" d="M8.27,23.11,8,23.36v-.87a.19.19,0,1,0-.38,0v.87l-.24-.25h0a.19.19,0,1,0-.27.27l.57.56a.17.17,0,0,0,.26,0l.57-.56a.19.19,0,1,0-.27-.27Z" transform="translate(-6.01 -14)"/><path d="M15.18,15.79v3.1h-.55v-3.1Z" transform="translate(-6.01 -14)"/><path d="M15.77,17.29c0-.47,0-.62,0-.72h.52a2.45,2.45,0,0,1,0,.32.69.69,0,0,1,.66-.36c.46,0,.73.28.73.85v1.51h-.53V17.47c0-.28-.08-.5-.39-.5s-.47.21-.47.64v1.28h-.53Z" transform="translate(-6.01 -14)"/><path d="M18,16.57h.34v-.64h.53v.64h.43V17h-.43v1.27c0,.18,0,.25.23.25l.16,0v.38a1.14,1.14,0,0,1-.35,0c-.41,0-.57-.16-.57-.58V17H18Z" transform="translate(-6.01 -14)"/><path d="M20,17.84c0,.35.14.67.5.67A.43.43,0,0,0,21,18.2h.52a.93.93,0,0,1-1,.73c-.73,0-1-.53-1-1.2a1.07,1.07,0,0,1,1.05-1.2c.76,0,1,.55,1,1.13,0,0,0,.16,0,.18Zm1-.35c0-.31-.14-.56-.48-.56s-.48.33-.49.56Z" transform="translate(-6.01 -14)"/><path d="M22,17.36c0-.38,0-.64,0-.79h.52c0,.1,0,.25,0,.43a.74.74,0,0,1,.72-.47v.54c-.49,0-.71.21-.71.74v1.08H22Z" transform="translate(-6.01 -14)"/><path d="M23.57,17.29c0-.47,0-.62,0-.72h.52a2.45,2.45,0,0,1,0,.32.7.7,0,0,1,.66-.36c.46,0,.73.28.73.85v1.51H25V17.47c0-.28-.08-.5-.39-.5s-.47.21-.47.64v1.28h-.53Z" transform="translate(-6.01 -14)"/><path d="M27.82,18.32a5.44,5.44,0,0,0,0,.57h-.46a1.46,1.46,0,0,1,0-.31.68.68,0,0,1-.66.35.69.69,0,0,1-.77-.71c0-.39.27-.75,1.08-.75h.3v-.19c0-.2-.06-.37-.37-.37s-.38.14-.4.34H26c0-.37.25-.72.93-.72.52,0,.88.19.88.74Zm-.5-.5H27c-.47,0-.55.19-.55.36a.33.33,0,0,0,.36.34c.39,0,.5-.27.5-.65Z" transform="translate(-6.01 -14)"/><path d="M28.11,16.57h.34v-.64H29v.64h.43V17H29v1.27c0,.18,0,.25.23.25l.15,0v.38a1.11,1.11,0,0,1-.35,0c-.4,0-.56-.16-.56-.58V17h-.34Z" transform="translate(-6.01 -14)"/><path d="M29.78,15.61h.53v.54h-.53Zm0,1h.53v2.32h-.53Z" transform="translate(-6.01 -14)"/><path d="M32.91,17.69c0,.68-.31,1.24-1.08,1.24s-1.06-.59-1.06-1.22a1.08,1.08,0,0,1,1.09-1.18A1,1,0,0,1,32.91,17.69Zm-1.6,0c0,.5.19.81.54.81s.52-.3.52-.81S32.2,17,31.84,17,31.31,17.25,31.31,17.7Z" transform="translate(-6.01 -14)"/><path d="M33.37,17.29c0-.47,0-.62,0-.72h.52a2.45,2.45,0,0,1,0,.32.69.69,0,0,1,.65-.36c.47,0,.74.28.74.85v1.51h-.53V17.47c0-.28-.09-.5-.39-.5s-.47.21-.47.64v1.28h-.53Z" transform="translate(-6.01 -14)"/><path d="M37.62,18.32a5.44,5.44,0,0,0,0,.57h-.47a2.72,2.72,0,0,1,0-.31.7.7,0,0,1-.67.35.68.68,0,0,1-.76-.71c0-.39.27-.75,1.08-.75h.3v-.19c0-.2-.06-.37-.38-.37a.34.34,0,0,0-.4.34h-.51c0-.37.25-.72.93-.72.52,0,.88.19.88.74Zm-.51-.5H36.8c-.46,0-.55.19-.55.36a.33.33,0,0,0,.36.34c.4,0,.5-.27.5-.65Z" transform="translate(-6.01 -14)"/><path d="M38.22,18.89V15.61h.53v3.28Z" transform="translate(-6.01 -14)"/><path d="M14.38,23.46h0A1.2,1.2,0,0,1,15,22.5c.26-.21.36-.3.36-.49a.27.27,0,0,0-.29-.3c-.2,0-.29.14-.31.35h-.34a.6.6,0,0,1,.67-.62.56.56,0,0,1,.63.57c0,.27-.12.42-.48.69a1.16,1.16,0,0,0-.4.47h.93l0,.29Z" transform="translate(-6.01 -14)"/><path d="M17.33,22.42c0,.56-.14,1.07-.69,1.07S16,23,16,22.43s.2-1,.7-1S17.33,21.86,17.33,22.42Zm-1,0c0,.48.08.8.33.8s.33-.33.33-.8-.08-.71-.32-.71S16.31,22,16.31,22.42Z" transform="translate(-6.01 -14)"/><path d="M17.57,23.46h0a1.2,1.2,0,0,1,.59-.95c.26-.21.35-.3.35-.49a.27.27,0,0,0-.28-.3c-.2,0-.29.14-.31.35h-.34a.6.6,0,0,1,.66-.62.57.57,0,0,1,.64.57c0,.27-.12.42-.48.69a1.16,1.16,0,0,0-.4.47h.93l0,.29Z" transform="translate(-6.01 -14)"/><path d="M19.19,22a.59.59,0,0,1,.65-.56c.44,0,.62.25.62.52a.44.44,0,0,1-.27.41h0a.5.5,0,0,1,.35.5.62.62,0,0,1-.71.62.6.6,0,0,1-.68-.56h.35a.33.33,0,0,0,.35.29.3.3,0,0,0,.33-.34c0-.25-.14-.34-.38-.34h-.15v-.28h.13c.22,0,.33-.07.33-.28a.25.25,0,0,0-.29-.27.28.28,0,0,0-.3.29Z" transform="translate(-6.01 -14)"/><path d="M15.25,20.54a.41.41,0,0,1-.44.36c-.31,0-.45-.19-.45-.53a.47.47,0,0,1,.46-.53.39.39,0,0,1,.43.37H15a.18.18,0,0,0-.19-.19c-.16,0-.22.14-.22.34s.08.36.22.36.17-.08.19-.18Z" transform="translate(-6.01 -14)"/><path d="M16.34,20.36c0,.3-.14.54-.49.54s-.47-.26-.47-.54a.48.48,0,0,1,.49-.52A.46.46,0,0,1,16.34,20.36Zm-.72,0c0,.22.09.36.24.36s.24-.14.24-.36S16,20,15.86,20,15.62,20.16,15.62,20.36Z" transform="translate(-6.01 -14)"/><path d="M16.54,20.18v-.32h.23V20a.33.33,0,0,1,.3-.16c.2,0,.32.13.32.38v.67h-.23v-.63c0-.13,0-.22-.18-.22s-.2.09-.2.28v.57h-.24Z" transform="translate(-6.01 -14)"/><path d="M17.69,20.89V20h-.15v-.18h.15v-.11c0-.19.08-.33.3-.33h.11v.19H18c-.08,0-.1.06-.1.14v.11h.18V20h-.18v.85Z" transform="translate(-6.01 -14)"/><path d="M18.41,20.42c0,.16.06.3.22.3a.2.2,0,0,0,.2-.14h.23a.42.42,0,0,1-.44.32c-.32,0-.45-.23-.45-.53a.47.47,0,0,1,.46-.53c.34,0,.44.25.44.5v.08Zm.43-.15c0-.14-.06-.25-.21-.25s-.21.14-.22.25Z" transform="translate(-6.01 -14)"/><path d="M19.27,20.21v-.35h.23s0,.11,0,.19a.31.31,0,0,1,.31-.21v.24c-.21,0-.31.09-.31.33v.48h-.24Z" transform="translate(-6.01 -14)"/><path d="M20.16,20.42c0,.16.06.3.22.3a.2.2,0,0,0,.2-.14h.23a.42.42,0,0,1-.44.32c-.32,0-.45-.23-.45-.53a.47.47,0,0,1,.46-.53c.34,0,.44.25.44.5v.08Zm.43-.15c0-.14-.06-.25-.21-.25s-.21.14-.22.25Z" transform="translate(-6.01 -14)"/><path d="M21,20.18v-.32h.23s0,.09,0,.14a.32.32,0,0,1,.29-.16c.21,0,.33.13.33.38v.67h-.24v-.63c0-.13,0-.22-.17-.22s-.21.09-.21.28v.57H21Z" transform="translate(-6.01 -14)"/><path d="M23,20.54a.4.4,0,0,1-.44.36c-.3,0-.45-.19-.45-.53a.47.47,0,0,1,.47-.53.39.39,0,0,1,.42.37h-.24a.18.18,0,0,0-.19-.19c-.15,0-.22.14-.22.34s.08.36.22.36.17-.08.2-.18Z" transform="translate(-6.01 -14)"/><path d="M23.35,20.42c0,.16.06.3.22.3a.2.2,0,0,0,.2-.14H24a.42.42,0,0,1-.44.32c-.32,0-.45-.23-.45-.53a.47.47,0,0,1,.46-.53c.34,0,.44.25.44.5v.08Zm.43-.15c0-.14-.06-.25-.21-.25s-.21.14-.22.25Z" transform="translate(-6.01 -14)"/><path d="M25.59,20.36c0,.3-.14.54-.48.54s-.48-.26-.48-.54a.48.48,0,0,1,.49-.52A.46.46,0,0,1,25.59,20.36Zm-.71,0c0,.22.08.36.24.36s.23-.14.23-.36-.08-.33-.24-.33S24.88,20.16,24.88,20.36Z" transform="translate(-6.01 -14)"/><path d="M25.79,20.18v-.32H26S26,20,26,20a.3.3,0,0,1,.29-.16c.21,0,.32.13.32.38v.67h-.23v-.63c0-.13,0-.22-.18-.22s-.2.09-.2.28v.57h-.24Z" transform="translate(-6.01 -14)"/><path d="M27.63,20.79v.5h-.24V20.16a2.88,2.88,0,0,0,0-.3h.23a.57.57,0,0,1,0,.14.31.31,0,0,1,.3-.16c.22,0,.39.17.39.52s-.19.54-.43.54A.29.29,0,0,1,27.63,20.79Zm.45-.43c0-.23-.09-.33-.23-.33s-.23.11-.23.34,0,.34.22.34S28.08,20.59,28.08,20.36Z" transform="translate(-6.01 -14)"/><path d="M28.76,19.43V20a.3.3,0,0,1,.29-.15c.17,0,.33.09.33.37v.68h-.24v-.64c0-.13,0-.21-.18-.21s-.2.09-.2.27v.58h-.24V19.43Z" transform="translate(-6.01 -14)"/><path d="M29.75,19.86c.13.46.21.7.23.82h0c0-.12.12-.47.23-.82h.23l-.35,1.07c-.11.32-.22.37-.4.37H29.6V21.1h.09c.1,0,.14-.06.17-.17l-.36-1.07Z" transform="translate(-6.01 -14)"/><path d="M30.75,20.58a.17.17,0,0,0,.19.15c.11,0,.16-.05.16-.12s-.06-.11-.22-.16-.33-.17-.33-.31.09-.3.38-.3.37.14.38.31h-.23a.14.14,0,0,0-.16-.14c-.09,0-.14,0-.14.11s0,.09.2.13.36.17.36.34-.17.31-.41.31-.39-.1-.41-.32Z" transform="translate(-6.01 -14)"/><path d="M31.53,19.43h.23v.24h-.23Zm0,.43h.23v1h-.23Z" transform="translate(-6.01 -14)"/><path d="M32.86,20.54a.4.4,0,0,1-.44.36c-.3,0-.45-.19-.45-.53a.47.47,0,0,1,.47-.53.39.39,0,0,1,.42.37h-.24a.18.18,0,0,0-.19-.19c-.15,0-.22.14-.22.34s.08.36.22.36.17-.08.2-.18Z" transform="translate(-6.01 -14)"/><path d="M33.21,20.58a.17.17,0,0,0,.19.15c.11,0,.16-.05.16-.12s-.06-.11-.22-.16-.33-.17-.33-.31.08-.3.37-.3.38.14.39.31h-.23a.15.15,0,0,0-.17-.14c-.08,0-.13,0-.13.11s0,.09.2.13.35.17.35.34-.16.31-.4.31-.39-.1-.42-.32Z" transform="translate(-6.01 -14)"/></svg>