<svg id="Layer_1" data-name="Layer 1" xmlns="http://www.w3.org/2000/svg" viewBox="0 0 14.89 10"><defs><style>.cls-1{fill:#ec5242;}</style></defs><title>logo-02</title><path class="cls-1" d="M9.54,15.7a.19.19,0,0,1-.19-.19A1.5,1.5,0,0,1,10.86,14a.21.21,0,0,1,.19.19A1.5,1.5,0,0,1,9.54,15.7Zm.21-.4a1.12,1.12,0,0,0,.9-.9,1.12,1.12,0,0,0-.9.9Z" transform="translate(-6.01 -14)"/><path class="cls-1" d="M13.23,17.25a2.49,2.49,0,0,0-3.16-1.32.89.89,0,0,1-.68,0A2.49,2.49,0,0,0,7.44,16a2.53,2.53,0,0,0-1.3,1.46A2.48,2.48,0,0,0,6.3,19.4l1,1.87h0a1.4,1.4,0,0,0,.85.71,1.43,1.43,0,0,0,1.09-.12,1,1,0,0,1,1,0,1.45,1.45,0,0,0,1.1.11,1.4,1.4,0,0,0,.85-.7l1-1.87h0a2.46,2.46,0,0,0,.07-2.15Zm-.41,2-1,1.87a1,1,0,0,1-.62.51,1.06,1.06,0,0,1-.8-.08,1.41,1.41,0,0,0-1.38,0,1.09,1.09,0,0,1-.81.08,1,1,0,0,1-.62-.51l-1-1.87a2.15,2.15,0,0,1-.13-1.65,2.1,2.1,0,0,1,1.1-1.24,2.17,2.17,0,0,1,1.66-.06,1.27,1.27,0,0,0,.94,0A2.11,2.11,0,0,1,13,17.58a2.11,2.11,0,0,1-.14,1.65Z" transform="translate(-6.01 -14)"/><path class="cls-1" d="M10.16,23.11l-.24.25v-.87a.2.2,0,0,0-.19-.19.19.19,0,0,0-.19.19v.87l-.25-.25h0a.19.19,0,0,0-.26,0,.2.2,0,0,0,0,.27l.56.56a.2.2,0,0,0,.14.06.16.16,0,0,0,.13-.06l.57-.56a.19.19,0,0,0,0-.27.19.19,0,0,0-.26,0Z" transform="translate(-6.01 -14)"/><path class="cls-1" d="M12.05,23.11l-.25.25v-.87a.19.19,0,1,0-.37,0v.87l-.25-.25h0a.19.19,0,0,0-.26,0,.19.19,0,0,0,0,.27l.57.56a.18.18,0,0,0,.13.06.2.2,0,0,0,.14-.06l.56-.56a.19.19,0,0,0,0-.27.19.19,0,0,0-.26,0Z" transform="translate(-6.01 -14)"/><path class="cls-1" d="M8.27,23.11,8,23.36v-.87a.19.19,0,1,0-.38,0v.87l-.24-.25h0a.19.19,0,1,0-.27.27l.57.56a.17.17,0,0,0,.26,0l.57-.56a.19.19,0,1,0-.27-.27Z" transform="translate(-6.01 -14)"/><path d="M15.18,16.79v3.1h-.55v-3.1Z" transform="translate(-6.01 -14)"/><path d="M18.26,18.94a1.12,1.12,0,0,1-1.2,1c-.95,0-1.3-.7-1.3-1.6s.43-1.58,1.32-1.58a1,1,0,0,1,1.16,1H17.7a.59.59,0,0,0-.64-.54c-.54,0-.74.54-.74,1.13s.18,1.16.75,1.16a.63.63,0,0,0,.65-.55Z" transform="translate(-6.01 -14)"/><path d="M18.74,16.79h1.11c.57,0,1.06.3,1.06.9s-.46,1-1.12,1h-.5v1.24h-.55Zm.55,1.42h.47c.36,0,.59-.13.59-.5s-.24-.48-.57-.48h-.49Z" transform="translate(-6.01 -14)"/><path d="M14.38,22.46h0A1.2,1.2,0,0,1,15,21.5c.26-.21.36-.3.36-.49a.27.27,0,0,0-.29-.3c-.2,0-.29.14-.31.35h-.34a.6.6,0,0,1,.67-.62.56.56,0,0,1,.63.57c0,.27-.12.42-.48.69a1.16,1.16,0,0,0-.4.47h.93l0,.29Z" transform="translate(-6.01 -14)"/><path d="M17.33,21.42c0,.56-.14,1.07-.69,1.07S16,22,16,21.43s.2-1,.7-1S17.33,20.86,17.33,21.42Zm-1,0c0,.48.08.8.33.8s.33-.33.33-.8-.08-.71-.32-.71S16.31,21,16.31,21.42Z" transform="translate(-6.01 -14)"/><path d="M17.57,22.46h0a1.2,1.2,0,0,1,.59-.95c.26-.21.35-.3.35-.49a.27.27,0,0,0-.28-.3c-.2,0-.29.14-.31.35h-.34a.6.6,0,0,1,.66-.62.57.57,0,0,1,.64.57c0,.27-.12.42-.48.69a1.16,1.16,0,0,0-.4.47h.93l0,.29Z" transform="translate(-6.01 -14)"/><path d="M19.19,21a.59.59,0,0,1,.65-.56c.44,0,.62.25.62.52a.44.44,0,0,1-.27.41h0a.5.5,0,0,1,.35.5.62.62,0,0,1-.71.62.6.6,0,0,1-.68-.56h.35a.33.33,0,0,0,.35.29.3.3,0,0,0,.33-.34c0-.25-.14-.34-.38-.34h-.15v-.28h.13c.22,0,.33-.07.33-.28a.25.25,0,0,0-.29-.27.28.28,0,0,0-.3.29Z" transform="translate(-6.01 -14)"/></svg>